<?xml version="1.0" encoding="UTF-8" standalone="no"?>
<!-- Created with Inkscape (http://www.inkscape.org/) -->
<svg
   xmlns:dc="http://purl.org/dc/elements/1.1/"
   xmlns:cc="http://web.resource.org/cc/"
   xmlns:rdf="http://www.w3.org/1999/02/22-rdf-syntax-ns#"
   xmlns:svg="http://www.w3.org/2000/svg"
   xmlns="http://www.w3.org/2000/svg"
   xmlns:sodipodi="http://sodipodi.sourceforge.net/DTD/sodipodi-0.dtd"
   xmlns:inkscape="http://www.inkscape.org/namespaces/inkscape"
   width="800.13"
   height="332.16"
   id="svg2"
   sodipodi:version="0.32"
   inkscape:version="0.44"
   sodipodi:docbase="D:\Documents des utilisateurs\Mes images\Wikipedia - Theorie5cordes\Atelier Graphique"
   sodipodi:docname="TitanicRoute.svg"
   version="1.0">
  <defs
     id="defs4" />
  <sodipodi:namedview
     id="base"
     pagecolor="#ffffff"
     bordercolor="#666666"
     borderopacity="1.0"
     inkscape:pageopacity="0.0"
     inkscape:pageshadow="2"
     inkscape:zoom="1.09787"
     inkscape:cx="281.97457"
     inkscape:cy="-1.6504332"
     inkscape:document-units="px"
     inkscape:current-layer="layer4"
     inkscape:window-width="1280"
     inkscape:window-height="1004"
     inkscape:window-x="-4"
     inkscape:window-y="-4"
     showguides="true"
     inkscape:guide-bbox="true"
     height="335.16px"
     width="800.13px" />
  <metadata
     id="metadata7">
    <rdf:RDF>
      <cc:Work
         rdf:about="">
        <dc:format>image/svg+xml</dc:format>
        <dc:type
           rdf:resource="http://purl.org/dc/dcmitype/StillImage" />
        <dc:title>OSPAR area map</dc:title>
        <dc:date>09/11/2006</dc:date>
        <dc:creator>
          <cc:Agent>
            <dc:title>Eric Gaba for Wikipedia</dc:title>
          </cc:Agent>
        </dc:creator>
        <cc:license
           rdf:resource="http://creativecommons.org/licenses/by-sa/2.0/" />
        <dc:description>OSPAR Commission for the protection of the marine environment of the North-East Atlantic : map of the marine area and the 15 contracting parties.</dc:description>
      </cc:Work>
      <cc:License
         rdf:about="http://creativecommons.org/licenses/by-sa/2.0/">
        <cc:permits
           rdf:resource="http://web.resource.org/cc/Reproduction" />
        <cc:permits
           rdf:resource="http://web.resource.org/cc/Distribution" />
        <cc:requires
           rdf:resource="http://web.resource.org/cc/Notice" />
        <cc:requires
           rdf:resource="http://web.resource.org/cc/Attribution" />
        <cc:permits
           rdf:resource="http://web.resource.org/cc/DerivativeWorks" />
        <cc:requires
           rdf:resource="http://web.resource.org/cc/ShareAlike" />
      </cc:License>
    </rdf:RDF>
  </metadata>
  <g
     inkscape:groupmode="layer"
     id="layer8"
     inkscape:label="Sea"
     style="display:inline"
     transform="translate(254.8397,515.8537)" />
  <g
     inkscape:groupmode="layer"
     id="layer4"
     inkscape:label="Map"
     style="display:inline"
     transform="translate(254.8397,515.8537)">
    <rect
       style="opacity:1;fill:#daf0fd;fill-opacity:1;fill-rule:nonzero;stroke:#daf0fd;stroke-width:2.2591393;stroke-linecap:butt;stroke-linejoin:miter;stroke-miterlimit:4;stroke-dasharray:none;stroke-opacity:1"
       id="rect22564"
       width="799.60504"
       height="331.85333"
       x="-254.40517"
       y="-515.72351" />
    <g
       id="g39557"
       transform="matrix(1.002791,0,0,1.007478,-0.847818,1.625893)">
      <g
         id="g39451">
        <path
           style="fill:#f4e2ba;fill-opacity:1;fill-rule:evenodd;stroke:#27aaea;stroke-width:0.99489379;stroke-linecap:butt;stroke-linejoin:miter;stroke-miterlimit:4;stroke-dasharray:none;stroke-opacity:1"
           d="M -188.73702,-183.38751 L -188.73702,-189.6595 L -187.12388,-196.11205 L -183.09104,-201.35475 L -178.25163,-204.17773 L -170.99251,-209.01715 L -171.79908,-211.84014 L -167.76624,-215.87298 L -162.92683,-216.27626 L -162.52355,-219.09925 L -157.68413,-222.32553 L -155.26443,-223.53538 L -153.65129,-229.58464 L -152.44144,-231.60106 L -149.61845,-229.58464 L -147.19874,-232.00435 L -152.84472,-236.03719 L -150.42502,-237.65033 L -146.39218,-238.45689 L -147.19874,-241.68317 L -148.81188,-244.90944 L -149.21517,-257.00797 L -145.18232,-255.39483 L -144.77904,-248.94228 L -140.7462,-256.2014 L -141.14948,-262.65395 L -142.35933,-266.68679 L -137.92321,-264.26709 L -133.89036,-271.12292 L -132.68051,-276.7689 L -134.69693,-279.1886 L -131.47066,-282.01159 L -120.58199,-282.01159 L -127.03453,-283.62473 L -124.61483,-285.64115 L -116.54914,-287.25429 L -110.0966,-290.48056 L -105.66047,-290.88384 L -104.8539,-294.5134 L -108.48346,-298.94953 L -108.08017,-302.98237 C -108.08017,-302.98237 -106.46703,-308.62835 -104.8539,-309.43492 C -103.24076,-310.24149 -96.384931,-314.67761 -96.384931,-314.67761 L -76.624004,-325.56629 L -60.895919,-332.01884 L -60.08935,-340.4878 L -62.105772,-345.7305 L -63.315624,-349.36006 L -62.91234,-356.21589 L -64.122193,-358.23231 L -64.525477,-360.65202 L -58.476213,-365.49143 L -60.08935,-369.92755 L -64.525477,-371.94397 L -69.768172,-373.15383 L -85.092973,-366.70128 L -91.948805,-361.45858 L -99.207921,-354.19947 L -105.66047,-346.94035 L -111.30645,-345.7305 L -118.16228,-342.10094 L -122.59841,-337.26153 L -126.63125,-333.63197 L -132.27723,-327.58271 L -137.92321,-325.163 L -144.37575,-319.51702 L -138.72978,-326.77614 L -135.10022,-329.59913 L -129.85752,-333.22869 L -124.61483,-338.87467 L -120.58199,-341.69766 L -113.72615,-344.92393 L -110.49988,-348.15021 L -103.64404,-352.58633 L -100.41777,-359.03888 L -96.788215,-363.47501 L -91.948805,-367.91113 L -92.352089,-370.33084 L -81.463415,-374.36368 L -77.430572,-384.84907 L -68.155035,-386.46221 L -61.702487,-384.84907 L -58.879498,-386.05892 L -55.653224,-384.84907 L -50.410529,-384.44579 L -46.377687,-386.86549 L -43.554697,-385.25235 L -37.505433,-383.23593 L -37.908718,-382.02608 L -32.262738,-384.0425 L -23.390485,-384.84907 L -19.357643,-388.47863 L -14.114948,-396.54431 L -5.6459792,-398.96402 L 1.2098527,-399.3673 L 6.0492635,-404.20671 L 6.4525477,-409.85269 L 2.4197054,-413.07897 L 5.6459792,-416.70852 L 7.6624004,-419.53151 L 5.242695,-424.77421 L -3.2262738,-425.58078 L -6.0492635,-435.2596 L -17.744506,-428.00048 L -29.439749,-421.54794 L -25.810191,-427.5972 L -16.534653,-434.45303 L -10.082106,-435.66288 L -8.0656846,-440.09901 L -11.695243,-440.90558 L -16.937938,-444.93842 L -24.197054,-445.74499 L -28.229896,-449.77783 L -35.489012,-458.65008 L -37.102149,-458.65008 L -37.102149,-475.58802 L -39.11857,-475.58802 L -39.11857,-482.84714 L -44.949649,-485.03007 L -45.203054,-487.49764 L -47.948365,-488.13935 L -46.780971,-490.91282 L -50.042911,-494.48098 L -48.797392,-498.17194 L -54.040087,-501.39821 L -56.863077,-510.67375 L -59.425,-514.50172 L -64.034784,-514.49802 L -65.73533,-507.85076 L -68.155035,-498.97851 L -72.591162,-498.17194 L -75.414151,-493.73581 L -80.656846,-492.12268 L -83.076552,-487.28326 L -85.496257,-492.92924 L -89.932383,-498.17194 L -96.384931,-503.01135 L -98.804637,-509.4639 L -98.804637,-513.49674 L -98.448191,-514.49474 L -158.37886,-514.50409 L -157.68413,-511.07703 L -162.52355,-505.43106 L -164.94325,-500.59164 L -166.1531,-496.15552 L -163.33011,-492.52596 L -158.08742,-489.29969 L -154.45786,-486.07341 L -153.65129,-481.63729 L -151.23159,-474.37817 L -150.8283,-462.27964 L -153.24801,-457.44023 L -160.10384,-449.77783 L -165.74982,-443.72857 L -171.3958,-443.72857 L -171.3958,-438.88916 L -173.00894,-436.46945 L -170.58923,-425.98406 L -168.16952,-419.12823 L -164.94325,-409.85269 L -175.83192,-397.75417 L -175.83192,-395.73774 L -182.28447,-398.15745 L -181.4779,-400.98044 L -184.30089,-406.22313 L -190.35016,-410.65926 L -193.17315,-417.11181 L -196.8027,-420.33808 L -193.57643,-424.77421 L -193.57643,-430.82347 L -195.99614,-435.2596 L -195.18957,-441.71215 L -193.17315,-444.13185 L -197.20599,-447.76141 L -219.38662,-447.35813 L -222.20961,-450.98768 L -226.64574,-455.42381 L -234.71142,-457.03695 L -237.53441,-462.27964 L -241.16397,-466.31248 L -245.19681,-469.53876 L -251.64936,-471.55518 L -253.47858,-471.49845 L -253.47889,-183.49023 L -188.73702,-183.38751 z "
           id="path2976"
           sodipodi:nodetypes="cccccccccccccccccccccccccccccccccccccccccsccccccccccccccccccccccccccccccccccccccccccccccccccccccccccccccccccccccccccccccccccccccccccccccccccccccccccccccccccccccccccccccccccccccccccccccc" />
        <path
           style="fill:#f4e2ba;fill-opacity:1;fill-rule:evenodd;stroke:#208ec3;stroke-width:0.99489379;stroke-linecap:butt;stroke-linejoin:miter;stroke-miterlimit:4;stroke-dasharray:none;stroke-opacity:1"
           d="M -190.56743,-418.24114 L -188.11377,-416.60537 L -183.20646,-415.78749 L -181.57068,-417.8322 L -186.06906,-421.51269 L -191.38532,-421.51269 L -192.61214,-419.46797 L -190.56743,-418.24114 z "
           id="path9173" />
        <path
           style="fill:#f4e2ba;fill-opacity:1;fill-rule:evenodd;stroke:#208ec3;stroke-width:0.99489379;stroke-linecap:butt;stroke-linejoin:miter;stroke-miterlimit:4;stroke-dasharray:none;stroke-opacity:1"
           d="M -66.657706,-309.05337 C -60.114618,-315.18751 -56.025189,-318.45906 -56.025189,-318.45906 L -46.210557,-323.77531 L -42.121127,-323.77531 L -33.124382,-327.86474 L -28.626009,-332.77206 L -22.900807,-336.86149 L -27.39918,-340.54198 L -29.034952,-347.08506 L -35.578039,-336.45255 L -39.667469,-334.81677 L -42.939013,-334.81677 L -44.983728,-339.72409 L -47.437386,-336.45255 L -49.482101,-333.99889 L -51.526816,-339.31515 L -54.389417,-338.49726 L -57.252017,-333.181 L -59.296732,-329.50052 C -59.296732,-329.50052 -63.386162,-325.82003 -65.021934,-325.41109 C -66.657706,-325.00214 -69.92925,-320.50377 -69.92925,-320.50377 L -71.973965,-315.59645 L -66.657706,-309.05337 z "
           id="path9175" />
        <path
           style="fill:#f4e2ba;fill-opacity:1;fill-rule:evenodd;stroke:#208ec3;stroke-width:0.99489379;stroke-linecap:butt;stroke-linejoin:miter;stroke-miterlimit:4;stroke-dasharray:none;stroke-opacity:1"
           d="M -37.213811,-371.62164 C -44.983728,-383.48099 -58.478846,-381.02733 -58.478846,-381.02733 L -53.162588,-376.52896 C -53.162588,-376.52896 -45.392671,-370.80376 -42.939013,-370.80376 C -40.485355,-370.80376 -36.395925,-370.80376 -37.213811,-371.62164 z "
           id="path9177"
           sodipodi:nodetypes="cccsc" />
        <path
           style="fill:#f4e2ba;fill-opacity:1;fill-rule:evenodd;stroke:#208ec3;stroke-width:0.99489379;stroke-linecap:butt;stroke-linejoin:miter;stroke-miterlimit:4;stroke-dasharray:none;stroke-opacity:1"
           d="M -15.948776,-365.07856 C -12.677232,-370.80376 -9.8146316,-374.0753 -9.8146316,-375.71107 C -9.8146316,-377.34684 -4.9073158,-385.93465 -4.9073158,-385.93465 L -2.4536579,-392.88668 L 4.9073158,-399.42977 L 4.9073158,-393.70456 L 4.9073158,-388.38831 L 1.6357719,-379.8005 L -3.6804868,-371.62164 C -3.6804868,-371.62164 -6.9520307,-368.75904 -8.5878026,-367.94116 C -10.223575,-367.12327 -14.721947,-364.66961 -15.948776,-365.07856 z "
           id="path9179" />
        <path
           style="fill:#f4e2ba;fill-opacity:1;fill-rule:evenodd;stroke:#208ec3;stroke-width:0.99489379;stroke-linecap:butt;stroke-linejoin:miter;stroke-miterlimit:4;stroke-dasharray:none;stroke-opacity:1"
           d="M 4.4983728,-383.07205 L 8.9967456,-378.98262 C 8.9967456,-378.98262 15.13089,-374.89319 16.766662,-374.0753 C 18.402434,-373.25742 23.718693,-371.62164 23.718693,-371.62164 L 24.536579,-363.85173 L 22.491864,-357.71758 L 17.993491,-352.81027 L 6.1341447,-354.44604 L 0.81788596,-355.67287 L -4.0894298,-354.85498 L -14.721947,-354.85498 L -20.856092,-356.8997 L -14.313004,-362.21595 L -4.9073158,-369.16799 L -2.8626009,-374.0753 L 4.4983728,-383.07205 z "
           id="path9181" />
        <path
           style="fill:#f4e2ba;fill-opacity:1;fill-rule:evenodd;stroke:#208ec3;stroke-width:0.99489379;stroke-linecap:butt;stroke-linejoin:miter;stroke-miterlimit:4;stroke-dasharray:none;stroke-opacity:1"
           d="M 26.990237,-344.22246 L 31.897553,-351.58344 C 31.897553,-351.58344 32.715439,-354.85498 30.670724,-356.08181 C 28.626009,-357.30864 26.172351,-357.71758 26.172351,-357.71758 C 26.172351,-357.71758 23.718693,-356.49075 22.900807,-354.44604 C 22.082921,-352.40132 21.265035,-352.40132 21.265035,-350.76555 C 21.265035,-349.12978 20.038206,-349.12978 22.082921,-347.90295 C 24.127636,-346.67612 28.217066,-344.22246 26.990237,-344.22246 z "
           id="path9183" />
      </g>
      <g
         id="g38550">
        <path
           style="fill:#daf0fd;fill-opacity:1;fill-rule:evenodd;stroke:#208ec3;stroke-width:0.99489379;stroke-linecap:butt;stroke-linejoin:miter;stroke-miterlimit:4;stroke-dasharray:none;stroke-opacity:1"
           d="M -253.47422,-356.6194 L -247.00156,-363.44278 L -238.8227,-369.16799 L -227.78124,-367.53221 L -221.6471,-359.7623 L -216.33084,-358.94441 L -214.69507,-350.76555 L -209.78775,-345.04035 L -212.24141,-340.95092 L -217.55767,-344.22246 L -220.42027,-344.22246 L -221.23815,-345.85824 L -225.32758,-343.81352 L -229.00807,-342.17775 L -234.32433,-342.17775 L -236.36904,-346.26718 L -240.04953,-347.08506 L -240.04953,-351.17449 L -236.36904,-352.40132 L -241.6853,-352.40132 L -243.73002,-348.72084 L -249.45522,-344.63141 L -253.13571,-344.63141 L -253.49049,-345.00921 L -253.47422,-356.6194 z "
           id="path13677"
           sodipodi:nodetypes="ccccccccccccccccccccccccc" />
        <path
           style="fill:#daf0fd;fill-opacity:1;fill-rule:evenodd;stroke:#208ec3;stroke-width:0.99489379;stroke-linecap:butt;stroke-linejoin:miter;stroke-miterlimit:4;stroke-dasharray:none;stroke-opacity:1"
           d="M -173.80077,-306.19077 L -169.30239,-307.00865 L -152.94468,-308.23548 L -150.08207,-311.50702 L -148.85525,-315.59645 L -148.85525,-317.64117 L -155.80728,-317.23223 L -155.80728,-314.36963 L -158.26093,-316.0054 L -163.16825,-316.0054 L -166.43979,-313.96068 L -169.71134,-313.55174 L -173.39182,-310.68914 L -173.80077,-306.19077 z "
           id="path13679" />
        <path
           style="fill:#daf0fd;fill-opacity:1;fill-rule:evenodd;stroke:#208ec3;stroke-width:0.99489379;stroke-linecap:butt;stroke-linejoin:miter;stroke-miterlimit:4;stroke-dasharray:none;stroke-opacity:1"
           d="M -235.9601,-314.77857 C -235.9601,-316.41434 -235.55116,-317.64117 -235.55116,-317.64117 L -234.32433,-319.68588 L -233.91539,-324.18426 L -238.8227,-325.41109 L -231.87067,-331.95417 L -225.73653,-335.22572 L -220.42027,-336.45255 L -218.37555,-338.08832 L -213.05929,-336.0436 L -213.05929,-331.95417 L -219.19344,-327.04686 L -219.19344,-322.54849 L -224.5097,-322.54849 L -224.91864,-319.27694 C -224.91864,-319.27694 -226.96335,-317.64117 -226.96335,-315.18751 C -226.96335,-312.73385 -225.73653,-310.2802 -225.73653,-310.2802 L -224.10075,-302.91922 L -226.96335,-295.55825 L -229.00807,-291.46882 L -234.73327,-291.87776 L -239.23164,-296.78508 L -237.18693,-300.46556 L -239.23164,-306.59971 L -236.77799,-309.87125 L -235.9601,-314.77857 z "
           id="path13687" />
        <path
           style="fill:#daf0fd;fill-opacity:1;fill-rule:evenodd;stroke:#208ec3;stroke-width:0.99489379;stroke-linecap:butt;stroke-linejoin:miter;stroke-miterlimit:4;stroke-dasharray:none;stroke-opacity:1"
           d="M -199.15523,-286.97045 C -194.24792,-289.4241 -189.74954,-289.83305 -189.74954,-289.83305 L -183.6154,-293.10459 C -183.6154,-293.10459 -181.16174,-295.14931 -178.70808,-295.55825 C -176.25443,-295.96719 -172.165,-295.14931 -172.165,-297.60296 C -172.165,-300.05662 -172.57394,-302.91922 -172.57394,-302.91922 L -183.20646,-301.69239 L -191.79426,-298.82979 L -195.88369,-294.33142 C -195.88369,-294.33142 -195.78145,-300.77227 -196.70157,-300.46556 C -197.62169,-300.15885 -199.56418,-293.10459 -199.56418,-293.10459 L -203.24466,-291.87776 L -202.42678,-288.19727 L -199.15523,-286.97045 z "
           id="path13689"
           sodipodi:nodetypes="cccsscccczcccc" />
        <path
           style="fill:#daf0fd;fill-opacity:1;fill-rule:evenodd;stroke:#208ec3;stroke-width:0.99489379;stroke-linecap:butt;stroke-linejoin:miter;stroke-miterlimit:4;stroke-dasharray:none;stroke-opacity:1"
           d="M -177.07231,-322.13954 L -178.70808,-329.90946 L -185.66011,-336.45255 L -200.38206,-337.67938 L -201.60889,-334.40783 L -191.38532,-332.77206 L -185.25117,-322.95743 L -179.52597,-319.27694 L -177.07231,-322.13954 z "
           id="path13691" />
        <path
           style="fill:#daf0fd;fill-opacity:1;fill-rule:evenodd;stroke:#208ec3;stroke-width:0.99489379;stroke-linecap:butt;stroke-linejoin:miter;stroke-miterlimit:4;stroke-dasharray:none;stroke-opacity:1"
           d="M -195.47475,-304.14605 C -195.88369,-305.78182 -198.33735,-314.77857 -198.33735,-314.77857 L -202.83572,-315.18751 C -202.83572,-315.18751 -206.41645,-310.51891 -206.92515,-310.68914 C -207.52703,-310.89055 -207.26213,-315.74039 -206.92515,-316.0054 C -206.56663,-316.28736 -202.42678,-318.05011 -202.42678,-318.05011 L -202.42678,-324.5932 L -205.28938,-329.50052 L -211.42352,-332.36312 L -211.42352,-336.86149 L -205.28938,-336.0436 L -201.60889,-335.63466 C -201.60889,-335.63466 -199.60811,-335.83236 -195.88369,-333.99889 C -192.15927,-332.16542 -191.57571,-332.40693 -189.74954,-328.68263 C -187.92337,-324.95833 -185.9281,-323.20111 -185.9281,-323.20111 L -188.52271,-316.41434 L -189.95402,-308.23549 L -195.47475,-304.14605 z "
           id="path13693"
           sodipodi:nodetypes="ccczzccccccczzcccc" />
        <path
           style="fill:#daf0fd;fill-opacity:1;fill-rule:evenodd;stroke:#208ec3;stroke-width:0.99489379;stroke-linecap:butt;stroke-linejoin:miter;stroke-miterlimit:4;stroke-dasharray:none;stroke-opacity:1"
           d="M -208.56092,-336.45255 C -208.56092,-336.45255 -211.42352,-339.21291 -210.19669,-340.13303 C -208.96986,-341.05315 -205.82623,-341.11357 -203.6536,-340.13303 C -201.48097,-339.15249 -201.50616,-336.21085 -201.50616,-336.21085 L -208.56092,-336.45255 z "
           id="path13695"
           sodipodi:nodetypes="czzcc" />
      </g>
    </g>
    <path
       style="fill:#f4e2ba;fill-opacity:1;fill-rule:evenodd;stroke:#27aaea;stroke-width:0.94099945;stroke-linecap:butt;stroke-linejoin:miter;stroke-miterlimit:4;stroke-dasharray:none;stroke-opacity:1"
       d="M 546.0995,-201.6368 L 542.05055,-205.51963 L 527.38862,-205.92881 L 522.90859,-209.61143 L 518.83584,-210.42979 L 511.09761,-216.56748 C 511.09761,-216.56748 511.50488,-218.2042 513.13398,-219.84091 C 514.76307,-221.47764 517.20674,-223.11435 517.20674,-224.75106 C 517.20674,-226.38779 517.61401,-231.29794 517.61401,-231.29794 L 513.54126,-236.20808 C 513.54126,-236.20808 514.3558,-239.48153 515.98491,-239.8907 C 517.61401,-240.29989 518.83584,-242.75496 518.83584,-242.75496 L 514.76307,-243.16414 L 511.50488,-246.84675 C 511.50488,-246.84675 505.39574,-246.84675 503.76665,-246.84675 C 502.13754,-246.84675 500.91572,-246.02839 499.28661,-245.61922 C 497.65751,-245.21004 495.62112,-242.75496 495.62112,-242.75496 L 490.32655,-245.21004 L 484.21741,-244.39167 C 484.21741,-244.39167 482.18103,-243.16414 480.14465,-243.16414 C 478.10827,-243.16414 474.44279,-241.52742 474.44279,-241.52742 C 474.44279,-241.52742 473.62825,-242.75496 470.77733,-243.57332 C 467.92638,-244.39167 466.70456,-244.39167 466.70456,-244.39167 C 466.70456,-244.39167 463.85364,-242.75496 461.40999,-242.75496 C 458.96633,-242.75496 456.52268,-241.52742 452.04265,-241.52742 C 447.56261,-241.52742 447.56261,-243.16414 444.71168,-241.52742 C 441.86075,-239.8907 443.48986,-240.70906 440.23166,-239.07235 C 436.97344,-237.43563 436.56617,-239.07235 434.93706,-237.02644 C 433.30797,-234.98055 432.4934,-233.75301 428.42065,-232.93465 C 424.3479,-232.1163 425.5687,-232.25231 424.28685,-230.03145 C 422.40325,-226.76799 422.31152,-226.79697 419.4606,-226.38779 C 416.60966,-225.97861 419.05331,-225.16024 415.38784,-225.97861 C 411.72236,-226.79697 412.53691,-229.25204 410.90781,-229.25204 C 409.2787,-229.25204 406.02051,-229.25204 406.02051,-229.25204 C 406.02051,-229.25204 408.87143,-229.66122 402.35502,-229.25204 C 395.83862,-228.84286 395.02406,-229.25204 395.02406,-229.25204 C 395.02406,-229.25204 393.39496,-230.88875 391.35858,-232.1163 C 389.3222,-233.34383 390.54402,-233.34383 388.91493,-233.75301 C 386.36002,-236.59694 387.78127,-230.43115 388.10036,-228.84286 C 388.10036,-228.84286 384.22924,-224.47964 384.22924,-222.43373 C 384.22924,-220.38784 383.84242,-219.61782 381.47246,-217.49786 C 378.87353,-215.1731 376.62296,-214.89278 374.99385,-214.07441 C 373.36475,-213.25606 371.80935,-212.0665 369.3657,-211.24814 C 366.92204,-210.42979 369.32538,-210.49866 368.51081,-208.86194 C 367.69627,-207.22522 367.35018,-206.28656 364.88163,-204.63646 C 359.83303,-201.26174 359.18381,-192.83506 359.18381,-192.83506 L 358.77654,-188.74327 L 358.79518,-183.22706 L 546.0973,-183.2455 L 546.0995,-201.6368 z "
       id="path26106"
       sodipodi:nodetypes="ccccccssccscccsscccscscsssssssssscscsscssssssccccc" />
    <g
       id="g49336"
       transform="matrix(1.00136,0,0,1.006262,-0.338671,1.338888)">
      <path
         sodipodi:nodetypes="ccccccsccc"
         id="path26108"
         d="M 545.66499,-241.76742 L 537.73129,-247.88036 L 528.67832,-251.59541 L 527.32274,-253.96769 L 533.76177,-255.66217 L 538.16742,-253.96769 C 538.16742,-253.96769 540.2008,-253.62879 542.23418,-253.62879 C 544.26756,-253.62879 545.4422,-256.90579 545.4422,-256.90579 L 545.66499,-252.9887 L 545.66499,-241.76742 z "
         style="fill:#f4e2ba;fill-opacity:1;fill-rule:evenodd;stroke:#27aaea;stroke-width:0.93743002;stroke-linecap:butt;stroke-linejoin:miter;stroke-miterlimit:4;stroke-dasharray:none;stroke-opacity:1" />
      <path
         sodipodi:nodetypes="csssssssssssscsssssssscssssccscsssssssssssssssscscsssssssssssssssssssssccsscsscssscsssssssscsssscssscssccssssssssssscsssssscssssscssssccscsccccscccscscccsscscsccccsssscsssssssssssssssssssssssssssssssssssscc"
         id="path26110"
         d="M 545.73938,-295.83696 C 539.60949,-302.44296 539.07335,-303.49946 539.13286,-304.27313 C 539.19238,-305.04681 539.54946,-306.41562 538.95432,-307.12978 C 538.35919,-307.84394 537.40697,-308.26054 537.34746,-309.03421 C 537.28795,-309.80789 537.526,-310.64108 536.51427,-311.35524 C 535.50254,-312.0694 534.72886,-312.30745 533.71713,-312.78356 C 532.70541,-313.25967 530.97951,-313.55724 530.26535,-314.98556 C 529.55119,-316.41389 528.65849,-316.88999 527.8253,-318.97297 C 526.99211,-321.05594 526.39697,-322.1867 526.45649,-324.44821 C 526.516,-326.70972 525.92087,-328.97124 526.81357,-329.6854 C 527.70627,-330.39956 528.00384,-331.11372 528.95605,-331.41129 C 529.90827,-331.70886 530.14632,-332.00643 531.69368,-332.18497 C 533.24103,-332.36351 532.94346,-332.36351 533.77665,-333.01815 C 534.60984,-333.6728 535.324,-334.14891 535.324,-334.14891 C 535.324,-334.14891 535.38351,-333.61329 535.38351,-333.07767 C 535.38351,-332.54205 535.14546,-332.66107 535.38351,-331.8874 C 535.62157,-331.11372 535.324,-331.35178 535.68108,-330.16151 C 536.03816,-328.97124 536.2167,-327.84048 536.81184,-327.4834 C 537.40697,-327.12632 537.64503,-325.40043 538.18065,-325.10286 C 538.71627,-324.80529 538.18065,-324.68626 539.3114,-324.80529 C 540.44216,-324.92432 540.20411,-324.26967 540.85876,-325.45994 C 541.5134,-326.65021 541.81097,-327.4834 541.93,-327.72145 C 542.04903,-327.95951 543.7154,-327.95951 543.7154,-327.95951 C 543.7154,-327.95951 543.77492,-327.89999 543.83443,-327.18583 C 543.89394,-326.47167 543.83443,-326.65021 543.89394,-325.57897 C 543.95346,-324.50772 543.53686,-324.80529 544.132,-323.55551 C 544.72713,-322.30572 544.84616,-320.52032 545.20324,-320.52032 C 545.56032,-320.52032 545.58621,-320.49582 545.58621,-320.49582 L 545.48201,-431.63014 C 545.40649,-431.24855 544.51817,-430.78439 544.07249,-430.50128 C 543.47735,-430.32274 541.45389,-430.32274 541.45389,-430.32274 C 541.45389,-430.32274 539.60897,-430.26323 538.95432,-432.10814 C 538.29967,-433.95306 538.00211,-434.01258 537.46649,-435.26236 C 536.93086,-436.51214 536.27622,-437.46436 535.91913,-437.88095 C 535.56205,-438.29755 534.60984,-438.5356 533.71713,-438.29755 C 532.82443,-438.0595 532.58638,-438.23804 531.93173,-437.52387 C 531.27708,-436.80971 530.56292,-435.02431 529.96778,-434.78625 C 529.37265,-434.5482 530.86049,-434.60771 527.94432,-433.71501 C 525.02816,-432.82231 525.38524,-433.35793 524.25449,-432.76279 C 523.12373,-432.16766 521.57638,-430.67982 520.50514,-430.26323 C 519.43389,-429.84663 517.46995,-430.50128 517.23189,-431.09642 C 516.99384,-431.69155 516.87481,-431.69155 516.87481,-432.40571 C 516.87481,-433.11987 516.87481,-432.76279 516.75579,-433.83404 C 516.63676,-434.90528 517.17238,-435.14333 516.57724,-435.67896 C 515.98211,-436.21458 516.33919,-436.7502 515.20843,-436.51214 C 514.07768,-436.27409 513.66108,-436.69068 513.42303,-435.91701 C 513.18497,-435.14333 513.12546,-435.02431 513.304,-434.36966 C 513.48254,-433.71501 514.37524,-432.70328 514.37524,-432.70328 C 514.37524,-432.70328 515.56551,-432.64377 515.80357,-432.64377 C 516.04162,-432.64377 512.82789,-432.64377 512.82789,-432.64377 C 512.82789,-432.64377 512.53033,-432.70328 512.05422,-433.59598 C 511.57811,-434.48868 511.5186,-434.60771 511.102,-435.38139 C 510.68541,-436.15506 511.22103,-435.79798 510.50687,-436.86923 C 509.7927,-437.94047 509.97125,-437.6429 509.43562,-438.41658 C 508.9,-439.19025 507.70973,-451.86663 507.82876,-452.6403 C 507.94779,-453.41398 508.30487,-454.06863 509.01903,-454.96133 C 509.73319,-455.85403 509.19757,-455.79452 510.74492,-457.40139 C 512.29227,-459.00825 512.82789,-460.13901 513.54206,-460.67463 C 514.25622,-461.21025 515.506,-461.8649 516.04162,-462.34101 C 516.57724,-462.81711 517.17238,-462.99566 516.63676,-463.88836 C 516.10114,-464.78106 516.3987,-464.90009 515.20843,-465.67376 C 514.01816,-466.44744 512.29227,-466.80452 511.93519,-467.22111 C 511.57811,-467.63771 510.62589,-471.32755 511.87568,-472.69636 C 513.12546,-474.06517 513.78011,-474.06517 513.66108,-474.71982 C 513.54206,-475.37446 513.48254,-476.20765 513.48254,-477.755 C 513.48254,-479.30236 514.91087,-481.44484 513.95865,-481.50436 C 513.00643,-481.56387 513.66108,-482.09949 511.87568,-481.2663 C 510.09027,-480.43311 510.26881,-481.2663 509.43562,-480.07603 C 508.60243,-478.88576 508.42389,-477.87403 508.06681,-477.15987 C 507.70973,-476.44571 507.94779,-476.44571 507.17411,-475.73155 C 506.40043,-475.01738 505.98384,-474.48176 505.32919,-473.88663 C 504.67454,-473.29149 504.07941,-473.60843 503.6033,-473.48941 L 498.52113,-473.26104 C 498.52113,-473.26104 496.9973,-467.99479 496.52119,-466.86403 C 496.04508,-465.73328 495.688,-462.63857 495.74752,-461.68636 C 495.80703,-460.73414 495.80703,-458.05603 495.80703,-458.05603 C 495.80703,-458.05603 495.688,-450.67636 496.1046,-450.73587 C 496.52119,-450.79539 499.08027,-448.89095 499.08027,-448.6529 C 499.08027,-448.41485 496.93779,-443.95133 496.93779,-443.95133 C 496.93779,-443.95133 498.84222,-439.07123 499.37784,-437.88095 C 499.91346,-436.69068 500.68714,-434.5482 501.46081,-433.77452 C 502.23449,-433.00085 501.69887,-433.29841 503.42476,-431.87009 C 505.15065,-430.44177 508.30487,-425.97825 508.30487,-425.97825 C 508.30487,-425.97825 503.48427,-428.89442 503.00816,-429.01344 C 502.53206,-429.13247 501.46081,-429.54906 500.68714,-428.8349 C 499.91346,-428.12074 499.55638,-428.35879 499.08027,-427.16852 C 498.60417,-425.97825 498.78271,-426.03777 498.48514,-425.50215 C 498.18757,-424.96652 497.23535,-424.54993 496.93779,-424.90701 C 496.64022,-425.26409 497.05681,-425.3236 495.80703,-425.85923 C 494.55725,-426.39485 494.97384,-426.87096 493.06941,-426.81144 C 491.16498,-426.75193 486.64195,-426.45436 485.9873,-426.45436 C 485.33265,-426.45436 477.29833,-423.30015 477.29833,-423.30015 C 477.29833,-423.30015 475.15584,-422.16939 475.03682,-421.3362 C 474.91779,-420.50301 474.32265,-419.19371 474.91779,-417.88442 C 475.51292,-416.57512 476.58417,-416.57512 476.10806,-416.09901 C 475.63195,-415.6229 475.27487,-415.02777 474.56071,-415.26582 C 473.84655,-415.50388 472.53725,-417.52733 472.53725,-417.52733 C 472.53725,-417.52733 470.9899,-418.12247 470.9899,-418.95566 C 470.9899,-419.78885 471.34698,-420.26496 470.63282,-420.26496 C 469.91865,-420.26496 468.84741,-420.0269 468.96644,-419.43177 C 469.08547,-418.83663 469.32352,-412.5282 469.32352,-412.5282 C 469.32352,-412.5282 468.84741,-409.90961 468.25228,-409.67155 C 467.65714,-409.4335 466.70493,-407.76712 466.34784,-407.17198 C 465.99076,-406.57685 461.34871,-402.05382 461.34871,-402.05382 L 460.03941,-400.38744 C 460.03941,-400.38744 457.18276,-397.64982 456.34957,-397.17372 C 455.51639,-396.69761 453.3739,-395.03123 452.77876,-394.9122 C 452.18363,-394.79317 450.87433,-395.15026 450.2792,-394.55512 C 449.68406,-393.95999 448.13671,-393.1268 447.54158,-393.1268 C 446.94644,-393.1268 446.23228,-393.72193 445.51812,-392.29361 C 444.80395,-390.86528 444.5659,-391.10334 444.68493,-389.19891 C 444.80395,-387.29447 444.68493,-386.58031 445.04201,-385.98518 C 445.39909,-385.39004 446.58936,-385.15199 446.58936,-384.55685 C 446.58936,-383.96172 446.94644,-384.79491 445.75617,-383.24755 C 444.5659,-381.7002 439.20968,-380.50993 438.73358,-380.39091 C 438.25747,-380.27188 435.40082,-380.27188 435.28179,-377.89134 C 435.16277,-375.5108 435.16277,-375.5108 435.16277,-375.5108 C 435.16277,-375.5108 432.92599,-373.4398 432.04021,-373.66125 C 431.15442,-373.88269 430.0472,-374.76847 428.93997,-374.54703 C 427.83274,-374.32558 425.39684,-374.10414 423.40383,-372.77547 C 421.41082,-371.44679 420.74648,-370.33956 420.96793,-368.568 C 421.18938,-366.79644 422.2966,-367.23933 421.18938,-366.1321 C 420.08215,-365.02487 420.52504,-365.02487 417.86769,-365.02487 C 415.21035,-365.02487 411.88866,-366.35355 411.88866,-366.35355 C 411.88866,-366.35355 411.22433,-367.23933 408.78843,-367.23933 C 406.35253,-367.23933 405.2453,-367.90366 402.36651,-367.01788 C 399.48772,-366.1321 399.26627,-365.91065 398.82338,-364.13909 C 398.38049,-362.36753 396.83037,-363.47475 398.60193,-361.03885 C 400.3735,-358.60295 411.88866,-354.61693 413.66023,-351.73814 C 415.43179,-348.85935 417.4248,-349.52369 417.4248,-349.52369 C 417.4248,-349.52369 417.64625,-349.30224 417.64625,-347.75212 C 417.64625,-346.202 416.76047,-347.08778 417.86769,-345.31622 C 418.97492,-343.54466 417.86769,-343.7661 420.08215,-342.65887 C 422.2966,-341.55165 422.73949,-342.21598 423.40383,-341.10876 C 424.06817,-340.00153 424.51106,-317.63553 424.51106,-317.63553 L 422.2966,-315.42108 C 422.2966,-315.42108 423.62528,-308.55626 422.2966,-308.55626 C 420.96793,-308.55626 398.60193,-308.11337 398.60193,-308.11337 C 398.60193,-308.11337 395.0588,-309.66349 393.95158,-309.66349 C 392.84435,-309.66349 377.34316,-310.10638 377.34316,-310.10638 L 374.90726,-312.54228 L 371.36413,-312.09939 L 368.92823,-307.00615 C 368.92823,-307.00615 365.60655,-307.44904 364.49932,-307.00615 C 363.3921,-306.56326 364.94221,-301.69145 364.94221,-301.69145 L 366.49233,-297.70543 L 368.04245,-279.76835 C 368.04245,-279.76835 365.38511,-278.43967 365.16366,-277.33245 C 364.94221,-276.22522 364.94221,-273.56787 364.94221,-273.56787 C 364.94221,-273.56787 364.27788,-272.90354 363.83499,-270.91053 C 363.3921,-268.91752 360.73475,-266.70306 360.73475,-266.70306 L 361.62053,-264.9315 L 364.05643,-263.82427 C 364.05643,-263.82427 364.05643,-262.71704 365.16366,-261.83126 C 366.27089,-260.94548 366.27089,-260.0597 366.49233,-258.50958 C 366.71378,-256.95946 367.15667,-247.88019 367.15667,-247.88019 C 367.15667,-247.88019 368.48534,-244.77996 370.03546,-244.77996 C 371.58558,-244.77996 374.46437,-244.77996 374.46437,-244.77996 C 374.46437,-244.77996 371.14269,-245.66574 374.46437,-246.55152 C 377.78605,-247.4373 379.55762,-247.4373 379.55762,-247.4373 L 380.00051,-249.65176 L 383.76508,-243.45128 L 387.97255,-239.02237 C 387.97255,-239.02237 386.86532,-236.58647 389.74411,-236.58647 C 392.6229,-236.58647 395.0588,-239.46526 396.38748,-239.68671 C 397.71615,-239.90815 395.94459,-239.68671 399.70916,-241.01538 C 403.47373,-242.34405 407.23831,-244.11562 410.78144,-244.11562 C 414.32456,-244.11562 419.63926,-244.11562 419.63926,-244.11562 C 419.63926,-244.11562 418.53203,-245.22285 419.8607,-246.99441 C 421.18938,-248.76597 421.85371,-248.98742 423.18239,-249.8732 C 424.51106,-250.75898 428.71852,-254.08067 428.71852,-255.18789 C 428.71852,-256.29512 429.38286,-257.1809 430.93298,-258.50958 C 432.4831,-259.83825 435.80478,-260.28114 435.36189,-261.38837 C 434.919,-262.4956 433.59032,-263.60282 432.4831,-264.48861 C 431.37587,-265.37439 430.26864,-265.37439 430.26864,-266.92451 C 430.26864,-268.47463 429.38286,-268.47463 430.26864,-270.68908 C 431.15442,-272.90354 432.04021,-271.35342 433.81177,-273.56787 C 435.58334,-275.78233 435.36189,-277.77534 436.69056,-279.98979 C 438.01924,-282.20425 438.24068,-281.31847 440.01225,-282.4257 C 441.78381,-283.53292 441.34092,-284.86159 443.55537,-285.96882 C 445.76983,-287.07605 445.76983,-287.07605 447.98428,-287.96183 C 450.19874,-288.84761 448.87007,-288.84761 451.9703,-289.95484 C 455.07054,-291.06207 457.06355,-290.84062 457.72789,-292.39074 C 458.39222,-293.94086 457.94933,-294.16231 458.17078,-296.37676 C 458.39222,-298.59122 457.285,-301.47001 457.285,-303.02013 C 457.285,-304.57025 455.07054,-305.23458 457.72789,-306.7847 C 460.38523,-308.33482 459.7209,-308.55626 461.71391,-309.2206 C 463.70692,-309.88494 462.1568,-309.88494 464.37125,-309.88494 C 466.58571,-309.88494 471.23606,-309.2206 472.56474,-308.77771 C 473.89341,-308.33482 476.32931,-304.12735 480.53677,-305.45603 C 484.74424,-306.7847 486.73725,-311.6565 488.28737,-312.09939 C 489.83749,-312.54228 489.83749,-312.32084 492.49483,-313.87096 C 495.15218,-315.42108 496.92374,-315.42108 497.58808,-316.5283 C 498.25242,-317.63553 497.36663,-318.29987 500.24543,-318.52131 C 503.12422,-318.74276 503.34566,-318.29987 505.33867,-318.07842 C 507.33168,-317.85698 509.10325,-315.64252 510.43192,-315.42108 C 511.76059,-315.19963 512.86782,-314.53529 512.86782,-313.42807 C 512.86782,-312.32084 512.64637,-311.87795 512.86782,-310.10638 C 513.08927,-308.33482 511.3177,-306.34181 513.97505,-304.79169 C 516.63239,-303.24157 516.85384,-301.24856 519.51119,-299.477 C 522.16853,-297.70543 521.94709,-294.38375 524.38299,-293.27652 C 526.81889,-292.1693 527.48322,-289.7334 529.47623,-289.29051 C 531.46924,-288.84762 533.24081,-287.51894 535.23382,-287.2975 C 537.22683,-287.07605 538.99839,-283.31148 540.10562,-283.09003 C 541.21285,-282.86858 545.48786,-280.43268 545.48786,-280.43268 L 545.73938,-295.83696 z "
         style="fill:#f4e2ba;fill-opacity:1;fill-rule:evenodd;stroke:#27aaea;stroke-width:0.99620622;stroke-linecap:butt;stroke-linejoin:miter;stroke-miterlimit:4;stroke-dasharray:none;stroke-opacity:1" />
      <path
         id="path32342"
         d="M 458.35349,-267.51121 C 453.66942,-267.96819 455.3831,-268.88216 453.66942,-268.99641 C 451.95573,-269.11065 451.27026,-269.11065 451.27026,-269.11065 C 451.27026,-269.11065 449.21384,-269.45339 450.47054,-270.02462 C 451.72724,-270.59584 452.41271,-270.13886 452.8697,-270.71009 C 453.32668,-271.28132 452.64121,-271.05283 453.78366,-271.85255 C 454.92612,-272.65227 454.24064,-272.76651 455.3831,-272.76651 C 456.52556,-272.76651 458.23924,-272.30953 458.23924,-271.7383 C 458.23924,-271.16707 458.46773,-270.82434 458.46773,-270.13886 C 458.46773,-269.45339 458.46773,-267.16847 458.35349,-267.51121 z "
         style="fill:#f4e2ba;fill-opacity:1;fill-rule:evenodd;stroke:#27aaea;stroke-width:0.99620622px;stroke-linecap:butt;stroke-linejoin:miter;stroke-opacity:1" />
      <path
         id="path32344"
         d="M 502.4523,-263.39837 C 497.88248,-263.39837 498.4537,-263.62686 497.65399,-264.31233 C 496.85427,-264.99781 496.05455,-265.11205 496.39728,-266.25451 C 496.74002,-267.39697 495.9403,-266.93998 497.197,-268.19669 C 498.4537,-269.45339 498.91069,-268.88216 498.91069,-270.02462 C 498.91069,-271.16707 499.36767,-271.16707 498.4537,-272.19528 C 497.53974,-273.22349 497.08276,-272.995 496.96851,-274.13746 C 496.85427,-275.27991 496.96851,-274.93718 496.85427,-276.42237 C 496.74002,-277.90756 496.62577,-277.79332 496.62577,-279.507 C 496.62577,-281.22069 495.9403,-280.9922 497.42549,-281.67767 C 498.91069,-282.36314 498.79644,-282.47739 500.05314,-282.82013 C 501.30985,-283.16286 500.28163,-282.59164 501.76683,-283.73409 C 503.25202,-284.87655 503.13778,-285.44778 503.82325,-285.33353 C 504.50872,-285.21929 504.05174,-285.33353 505.30844,-284.41957 C 506.56514,-283.5056 506.4509,-283.96258 507.02213,-282.82013 C 507.59336,-281.67767 508.39307,-281.90616 508.50732,-280.64946 C 508.62157,-279.39276 509.07855,-279.73549 508.73581,-278.82153 C 508.39307,-277.90756 508.27883,-277.79332 507.7076,-277.33634 C 507.13637,-276.87935 506.67939,-277.33634 507.02213,-276.30813 C 507.36486,-275.27991 507.59336,-274.82293 507.93609,-274.36595 C 508.27883,-273.90897 508.62157,-273.79472 508.39307,-272.995 C 508.16458,-272.19528 508.05034,-272.30953 507.82185,-271.16707 C 507.59336,-270.02462 507.59336,-270.25311 507.02213,-269.68188 C 506.4509,-269.11065 506.4509,-269.33914 506.33665,-268.19669 C 506.22241,-267.05423 505.87967,-267.39697 505.30844,-267.05423 C 504.73721,-266.71149 504.73721,-267.05423 504.28023,-266.71149 C 503.82325,-266.36876 503.48051,-266.93998 503.36627,-265.91177 C 503.25202,-264.88356 502.4523,-263.62686 502.4523,-263.39837 z "
         style="fill:#f4e2ba;fill-opacity:1;fill-rule:evenodd;stroke:#27aaea;stroke-width:0.99620622px;stroke-linecap:butt;stroke-linejoin:miter;stroke-opacity:1" />
      <path
         id="path32346"
         d="M 503.82325,-291.73129 C 502.33806,-291.73129 503.25202,-290.81732 501.88107,-291.95978 C 500.51013,-293.10223 500.39588,-293.10223 499.71041,-294.0162 C 499.02493,-294.93016 498.56795,-294.35894 498.6822,-295.38715 C 498.79644,-296.41536 498.6822,-296.41536 499.02493,-297.55781 C 499.36767,-298.70027 498.56795,-298.58602 499.9389,-299.49999 C 501.30985,-300.41395 501.08135,-300.18546 502.4523,-300.75669 C 503.82325,-301.32792 504.05174,-300.87094 504.28023,-302.01339 C 504.50872,-303.15585 504.50872,-303.61283 504.96571,-303.61283 C 505.42269,-303.61283 505.65118,-304.06981 505.76543,-302.81311 C 505.87967,-301.55641 505.87967,-301.67066 505.87967,-300.98518 C 505.87967,-300.29971 505.99392,-301.09943 505.99392,-300.07122 C 505.99392,-299.04301 506.22241,-299.72848 505.76543,-298.12904 C 505.30844,-296.5296 504.73721,-296.41536 504.73721,-295.15866 C 504.73721,-293.90195 504.16599,-293.78771 504.16599,-292.98799 C 504.16599,-292.18827 504.16599,-291.38855 503.82325,-291.73129 z "
         style="fill:#f4e2ba;fill-opacity:1;fill-rule:evenodd;stroke:#27aaea;stroke-width:0.99620622px;stroke-linecap:butt;stroke-linejoin:miter;stroke-opacity:1" />
      <g
         style="fill:#f4e2ba;fill-opacity:1;stroke:#27aaea;stroke-width:0.99620622;stroke-opacity:1"
         id="g39587">
        <path
           style="fill:#f4e2ba;fill-opacity:1;fill-rule:evenodd;stroke:#27aaea;stroke-width:0.99620622px;stroke-linecap:butt;stroke-linejoin:miter;stroke-opacity:1"
           d="M 368.20591,-402.24274 C 367.2672,-401.92984 366.17205,-401.06936 363.8253,-401.30404 C 361.47854,-401.53871 361.08741,-401.06936 359.52291,-401.77339 C 357.95841,-402.47741 357.64551,-402.39919 357.01971,-403.49434 C 356.3939,-404.58949 356.3939,-404.98062 356.3939,-406.38867 C 356.3939,-407.79673 355.53343,-408.6572 356.31568,-409.67413 C 357.09793,-410.69106 357.33261,-410.06526 358.58421,-411.08218 C 359.83581,-412.09911 358.51018,-411.16041 359.99646,-413.58539 C 361.48274,-416.01037 360.45572,-414.99344 361.63919,-417.966 C 362.85584,-421.0219 361.63499,-420.7821 359.75759,-422.11193 C 357.88018,-423.44176 356.62858,-423.67644 357.41083,-424.69336 C 358.19308,-425.71029 358.89711,-425.00626 358.58421,-426.49254 C 358.27131,-427.97882 358.42776,-427.97882 357.64551,-429.62155 C 356.86326,-431.26428 356.081,-430.63848 356.62858,-432.20298 C 357.17616,-433.76748 356.7068,-433.84571 358.03663,-434.86264 C 359.36646,-435.87956 359.99226,-436.42714 362.10434,-436.42714 C 364.21642,-436.42714 367.97123,-436.11424 367.97123,-436.42714 C 367.97123,-436.74004 367.89301,-439.32147 368.12768,-440.6513 C 368.36236,-441.98113 368.44058,-444.01498 369.22283,-444.64078 C 370.00508,-445.26659 370.31799,-445.50126 371.88249,-446.51819 C 373.44699,-447.53512 373.99457,-447.76979 374.62037,-448.00447 C 375.24617,-448.23914 375.24617,-448.86494 376.02842,-449.02139 C 376.81068,-449.17784 376.73245,-449.6472 377.43648,-449.17784 C 378.1405,-448.70849 376.41955,-449.49074 378.21873,-448.47382 C 380.01791,-447.45689 378.92276,-447.76979 380.64371,-447.61334 C 382.36466,-447.45689 383.14691,-447.76979 384.32029,-447.45689 C 385.49367,-447.14399 384.94609,-447.30044 385.8848,-446.98754 C 386.8235,-446.67464 387.21462,-447.69157 387.52752,-446.43996 C 387.84043,-445.18836 387.37107,-445.73594 388.388,-444.17143 C 389.40493,-442.60693 389.71783,-442.13758 389.9525,-440.9642 C 390.18718,-439.79082 390.34363,-440.41662 390.34363,-438.69567 C 390.34363,-436.97472 390.34363,-437.60052 390.34363,-436.27069 C 390.34363,-434.94086 389.56138,-432.43766 389.48315,-431.26428 C 389.40493,-430.0909 385.80657,-429.07397 385.80657,-428.68285 C 385.80657,-428.29172 385.49367,-428.05705 385.8848,-426.72722 C 386.27592,-425.39739 386.35415,-425.47562 386.90172,-424.06756 C 387.4493,-422.65951 387.52752,-423.59821 387.84043,-421.79903 C 388.15333,-419.99985 388.30978,-419.60873 388.30978,-418.51357 C 388.30978,-417.41842 388.77913,-417.88777 388.15333,-416.47972 C 387.52752,-415.07167 386.11947,-413.27249 386.11947,-413.27249 C 386.11947,-413.27249 387.21462,-414.75877 385.72835,-412.56846 C 384.24207,-410.37816 384.55497,-409.90881 383.69449,-409.51768 C 382.83401,-409.12655 381.81709,-409.04833 381.50419,-408.50075 C 381.19129,-407.95318 380.95661,-407.4056 380.09613,-407.56205 C 379.23566,-407.7185 378.68808,-408.0314 377.74938,-408.0314 C 376.81068,-408.0314 377.04535,-407.87495 376.2631,-408.26608 C 375.48085,-408.6572 374.93327,-409.283 374.62037,-409.43945 C 374.30747,-409.5959 373.60344,-410.29993 373.60344,-410.29993 C 373.60344,-410.29993 372.27362,-409.20478 371.64781,-408.42253 C 371.02201,-407.64028 370.63089,-408.10963 370.08331,-406.54512 C 369.53573,-404.98062 368.36236,-402.24274 368.20591,-402.24274 z "
           id="path39575"
           sodipodi:nodetypes="csssssssssssssssssssssssssssssssssssssscssssssscssc" />
        <path
           style="fill:#f4e2ba;fill-opacity:1;fill-rule:evenodd;stroke:#27aaea;stroke-width:0.99620622px;stroke-linecap:butt;stroke-linejoin:miter;stroke-opacity:1"
           d="M 382.05176,-487.74286 C 383.30336,-487.74286 384.39852,-487.74286 385.33722,-487.74286 C 386.27592,-487.74286 386.43237,-490.08961 386.43237,-491.02831 C 386.43237,-491.96701 386.58882,-492.74927 385.80657,-492.74927 C 385.02432,-492.74927 384.55497,-493.06217 383.45982,-492.74927 C 382.36466,-492.43637 382.20821,-492.27992 382.20821,-491.65411 C 382.20821,-491.02831 382.05176,-488.05576 382.05176,-487.74286 z "
           id="path39577" />
        <path
           style="fill:#f4e2ba;fill-opacity:1;fill-rule:evenodd;stroke:#27aaea;stroke-width:0.99620622px;stroke-linecap:butt;stroke-linejoin:miter;stroke-opacity:1"
           d="M 407.73175,-496.978 C 408.87346,-496.26444 409.15888,-495.8363 409.3016,-494.98002 C 409.44431,-494.12374 409.15888,-492.26847 409.15888,-492.26847 C 409.15888,-492.26847 408.73074,-489.98506 408.15989,-489.55692 C 407.58904,-489.12878 402.30865,-485.1328 402.30865,-485.1328 C 402.30865,-485.1328 401.59508,-484.41924 402.30865,-483.70567 C 403.02221,-482.99211 402.30865,-483.27753 403.16493,-482.84939 C 404.02121,-482.42125 404.02121,-482.84939 405.0202,-482.27854 C 406.01919,-481.70769 405.0202,-481.99311 407.73175,-481.70769 C 410.4433,-481.42226 410.4433,-480.99412 412.72672,-480.99412 C 415.01013,-480.99412 415.43827,-480.99412 416.43726,-480.99412 C 417.43625,-480.99412 418.86339,-481.42226 419.71966,-480.70869 C 420.57594,-479.99513 421.28951,-479.99513 420.57594,-479.13885 C 419.86238,-478.28257 419.14881,-477.71172 418.29253,-476.57001 C 417.43625,-475.4283 417.57897,-475.85644 417.29354,-473.71574 C 417.00811,-471.57505 417.86439,-472.71675 416.15183,-470.14791 C 414.43927,-467.57908 415.01013,-467.15094 414.43927,-466.43737 C 413.86842,-465.7238 413.72571,-467.43636 412.86943,-464.5821 C 412.01315,-461.72783 412.584,-461.01427 411.4423,-460.3007 C 410.30059,-459.58713 410.72873,-459.87256 409.3016,-459.58713 C 407.87446,-459.30171 406.16191,-458.01729 406.16191,-458.01729 C 406.16191,-458.01729 407.58904,-459.3017 413.15486,-457.87457 C 418.72068,-456.44744 418.72067,-454.02132 418.72067,-454.02132 C 418.72067,-454.02132 420.1478,-452.59418 420.29052,-451.45248 C 420.43323,-450.31077 420.1478,-449.16907 420.86137,-448.17007 C 421.57494,-447.17108 422.85936,-447.02837 422.85936,-446.17209 C 422.85936,-445.31581 422.85936,-445.45852 422.85936,-443.88868 C 422.85936,-442.31883 422.2885,-441.89069 422.2885,-441.89069 L 424.71463,-440.60627 C 424.71463,-440.60627 425.28548,-440.17813 425.99905,-439.74999 C 426.71261,-439.32185 426.99804,-439.17914 427.85432,-438.18015 C 428.7106,-437.18115 429.42417,-437.89472 429.56688,-437.18115 C 429.70959,-436.46759 428.99603,-436.6103 429.85231,-435.61131 C 430.70858,-434.61231 431.27944,-433.89875 431.42215,-433.04247 C 431.56486,-432.18619 431.85029,-431.75805 431.993,-430.75906 C 432.13572,-429.76006 432.27843,-429.47464 432.27843,-428.76107 C 432.27843,-428.04751 431.42215,-427.76208 432.27843,-426.76309 C 433.13471,-425.76409 433.84828,-426.04952 433.84828,-425.47867 C 433.84828,-424.90781 434.84727,-421.91084 434.98998,-421.19727 C 435.1327,-420.4837 435.27541,-420.4837 435.27541,-419.19928 C 435.27541,-417.91486 435.1327,-418.05758 435.27541,-417.05859 C 435.41812,-416.05959 437.27339,-417.2013 437.27339,-417.2013 C 437.27339,-417.2013 436.70254,-417.34401 438.12967,-417.34401 C 439.55681,-417.34401 439.12867,-417.34401 440.5558,-417.34401 C 441.98293,-417.34401 442.83921,-417.91486 443.8382,-417.2013 C 444.8372,-416.48773 445.69348,-415.48874 445.69348,-415.48874 C 445.69348,-415.48874 446.54976,-415.63145 446.54976,-414.63246 C 446.54976,-413.63347 446.54976,-414.34703 446.54976,-412.06362 C 446.54976,-409.78021 446.54976,-409.20936 446.54976,-409.20936 C 446.54976,-409.20936 445.9789,-409.35207 444.69448,-408.06765 C 443.41006,-406.78323 442.6965,-406.92594 441.6975,-405.78424 C 440.69851,-404.64253 440.12766,-404.07168 439.12867,-403.07269 C 438.12967,-402.07369 437.70153,-401.50284 437.13068,-400.78927 C 436.55983,-400.07571 439.27138,-399.36214 439.27138,-399.36214 C 439.27138,-399.36214 439.98495,-399.64757 441.41208,-399.36214 C 442.83921,-399.07672 442.98192,-398.64858 442.98192,-398.64858 L 442.12564,-396.50788 C 442.12564,-396.50788 441.41208,-396.07974 440.41309,-394.79532 C 439.41409,-393.5109 439.27138,-392.51191 438.12967,-392.08377 C 436.98797,-391.65563 439.69952,-391.22749 435.98897,-391.3702 C 432.27843,-391.51291 430.42316,-391.51291 430.42316,-391.51291 C 430.42316,-391.51291 429.28145,-391.08477 428.42517,-392.22648 C 427.56889,-393.36819 427.28347,-394.08175 426.42719,-394.50989 C 425.57091,-394.93803 424.4292,-394.93803 423.43021,-394.22447 C 422.43122,-393.5109 420.86137,-390.79935 420.86137,-390.79935 C 420.86137,-390.79935 419.0061,-391.51291 417.86439,-391.3702 C 416.72269,-391.22749 415.58098,-391.22749 415.43827,-390.37121 C 415.29555,-389.51493 411.87044,-389.80035 411.87044,-389.80035 L 411.72772,-391.3702 L 408.58803,-389.65764 L 405.44834,-388.0878 C 405.44834,-388.0878 405.16291,-385.66167 404.02121,-385.51896 C 402.8795,-385.37624 403.45035,-385.23353 401.88051,-385.23353 C 400.31066,-385.23353 397.74182,-384.51996 397.31369,-385.51896 C 396.88555,-386.51795 393.31771,-384.80539 393.31771,-386.23252 C 393.31771,-387.65965 394.31671,-389.65764 395.74384,-390.51392 C 397.17097,-391.3702 396.60012,-390.79935 398.16996,-391.94105 C 399.73981,-393.08276 399.45438,-393.22547 400.45338,-394.08175 C 401.45237,-394.93803 401.7378,-394.79532 402.45136,-395.93702 C 403.16493,-397.07873 402.02322,-398.22044 404.02121,-397.64958 C 406.01919,-397.07873 405.0202,-397.22144 406.73276,-397.07873 C 408.44532,-396.93602 411.15687,-398.07772 411.15687,-398.07772 C 411.15687,-398.07772 411.87044,-398.64858 410.87144,-399.07672 C 409.87245,-399.50486 411.58501,-400.93199 409.01617,-399.50486 C 406.44733,-398.07772 407.1609,-397.50687 406.16191,-398.07772 C 405.16291,-398.64858 404.59206,-399.21943 404.16392,-399.79028 C 403.73578,-400.36114 403.87849,-400.93199 403.02221,-401.36013 C 402.16593,-401.78827 402.73679,-402.21641 401.16694,-402.50183 C 399.5971,-402.78726 400.45338,-402.92997 399.45438,-402.78726 C 398.45539,-402.64455 400.16795,-402.50183 397.4564,-402.50183 C 394.74485,-402.50183 394.03128,-401.93098 393.60314,-402.50183 C 393.175,-403.07269 392.03329,-403.78625 393.175,-404.92796 C 394.31671,-406.06967 393.03229,-405.49881 395.60113,-406.64052 C 398.16996,-407.78222 398.45539,-407.78222 399.5971,-408.21036 C 400.7388,-408.6385 399.5971,-407.78222 401.02423,-409.35207 C 402.45136,-410.92192 403.73578,-411.49277 403.30764,-412.77719 C 402.8795,-414.06161 402.45136,-414.48975 401.7378,-416.91587 C 401.02423,-419.342 400.7388,-419.05657 400.7388,-421.05456 C 400.7388,-423.05254 399.5971,-423.33797 401.45237,-423.33797 C 403.30764,-423.33797 402.30865,-422.90983 405.30563,-422.48169 C 408.3026,-422.05355 409.15888,-423.19525 409.58702,-423.90882 C 410.01516,-424.62239 409.72974,-424.62239 410.01516,-426.19223 C 410.30059,-427.76208 411.4423,-430.75906 411.4423,-431.32991 C 411.4423,-431.90076 410.15788,-434.18418 408.44532,-435.46859 C 406.73276,-436.75301 407.73175,-433.75604 406.30462,-437.18115 C 404.87749,-440.60627 403.59307,-439.60728 405.44834,-440.74898 C 407.30361,-441.89069 407.30361,-440.60627 407.87446,-442.46154 C 408.44532,-444.31682 410.15788,-444.31682 408.44532,-444.88767 C 406.73276,-445.45852 406.44733,-446.88565 405.44834,-445.31581 C 404.44935,-443.74596 403.59307,-442.46154 402.8795,-441.46255 C 402.16593,-440.46356 395.88655,-443.31783 395.88655,-443.31783 C 395.88655,-443.31783 394.31671,-440.60627 394.03128,-442.88969 C 393.74585,-445.1731 394.03128,-445.03038 394.174,-446.3148 C 394.31671,-447.59922 395.74384,-447.74193 396.88554,-449.02635 C 398.02725,-450.31077 397.59911,-449.59721 396.74283,-451.30976 C 395.88655,-453.02232 395.45841,-455.16302 394.17399,-455.87659 C 392.88957,-456.59016 393.31771,-455.44845 391.60515,-457.73186 C 389.8926,-460.01527 389.03632,-459.01628 388.32275,-462.4414 C 387.60918,-465.86652 388.03732,-466.00923 387.60918,-467.43636 C 387.18104,-468.86349 386.61019,-473.85846 386.61019,-473.85846 C 386.61019,-473.85846 387.7519,-474.2866 388.03732,-476.57001 C 388.32275,-478.85342 388.32275,-479.85241 388.60818,-481.27955 C 388.8936,-482.70668 388.32275,-482.42125 389.46446,-483.9911 C 390.60616,-485.56094 389.60717,-484.84738 391.17701,-486.41722 C 392.74686,-487.98707 392.88957,-487.41622 393.03229,-488.84335 C 393.175,-490.27048 392.74686,-489.69963 393.175,-491.69761 C 393.60314,-493.6956 392.60415,-493.6956 393.74585,-494.55188 C 394.88756,-495.40816 393.74585,-496.40715 395.17299,-495.40816 C 396.60012,-494.40917 396.74283,-493.55289 396.74283,-493.55289 L 398.16996,-492.98203 C 398.16996,-492.98203 399.02624,-492.98203 399.88252,-492.98203 C 400.7388,-492.98203 400.16795,-492.69661 401.7378,-493.83831 C 403.30764,-494.98002 402.73679,-494.98002 404.02121,-495.40816 C 405.30563,-495.8363 407.58904,-497.26343 407.73175,-496.978 z "
           id="path39579"
           sodipodi:nodetypes="cscscssssssssssssssscscssssccsssssssssssscssscsscsssscsccssscssscssccccsssssssssscsssssssssssssssssssssssssssscsssssssscssssssssccsssc" />
        <path
           sodipodi:nodetypes="csssssssssssssssssssssssssssssssssssssssssssssssssssccc"
           style="fill:#f4e2ba;fill-opacity:1;fill-rule:evenodd;stroke:#27aaea;stroke-width:0.99620622px;stroke-linecap:butt;stroke-linejoin:miter;stroke-opacity:1"
           d="M 474.45592,-514.49561 C 474.45592,-514.49561 474.04095,-507.03616 474.73257,-506.89783 C 475.4242,-506.75951 475.9775,-506.06788 476.66913,-505.0996 C 477.36076,-504.13133 477.36076,-501.22649 477.36076,-500.53487 C 477.36076,-499.84324 478.19071,-499.98157 477.22243,-499.28994 C 476.25415,-498.59831 475.83918,-498.87496 475.70085,-498.04501 C 475.56253,-497.21506 475.28588,-497.49171 475.70085,-496.66176 C 476.11583,-495.83181 476.5308,-496.24678 476.80745,-495.41683 C 477.08411,-494.58688 476.66913,-494.86353 477.36076,-493.75693 C 478.05238,-492.65032 477.49908,-492.512 479.02066,-491.82037 C 480.54224,-491.12874 481.23387,-492.09702 482.20214,-490.99042 C 483.17042,-489.88382 482.75544,-489.33051 483.5854,-487.94726 C 484.41535,-486.56401 483.03209,-487.25563 485.10698,-486.56401 C 487.18186,-485.87238 487.18186,-485.4574 489.39506,-485.73406 C 491.60827,-486.01071 491.05496,-485.59573 493.12984,-486.84066 C 495.20473,-488.08559 495.20473,-487.80894 496.7263,-488.77721 C 498.24788,-489.74549 498.66286,-489.60717 499.90779,-490.85209 C 501.15271,-492.09702 501.15271,-491.68205 501.98267,-493.20362 C 502.81262,-494.7252 502.95094,-496.10846 504.47252,-497.07673 C 505.9941,-498.04501 505.57913,-497.76836 506.96238,-498.73664 C 508.34563,-499.70492 508.62228,-500.53487 510.28219,-501.36482 C 511.94209,-502.19477 512.21874,-503.30137 513.602,-503.30137 C 514.98525,-503.30137 517.06013,-503.02472 517.47511,-501.64147 C 517.89008,-500.25822 517.19845,-500.94984 518.44338,-498.45999 C 519.68831,-495.97013 519.82664,-496.93841 519.96496,-495.00185 C 520.10329,-493.0653 519.54999,-494.7252 520.10329,-492.37367 C 520.65659,-490.02214 520.37994,-491.54372 520.79491,-488.91554 C 521.20989,-486.28736 520.79491,-487.11731 521.76319,-485.18075 C 522.73147,-483.2442 521.07156,-484.48913 523.28477,-482.1376 C 525.49797,-479.78607 525.91295,-478.54114 526.05128,-477.57286 C 526.1896,-476.60458 525.35965,-478.26449 526.32793,-474.80635 C 527.2962,-471.34822 527.01955,-471.48655 527.71118,-470.37994 C 528.40281,-469.27334 527.71118,-469.27334 529.50941,-467.75176 C 531.30764,-466.23018 531.72262,-467.06013 532.13759,-466.23018 C 532.55257,-465.40023 532.96754,-465.2619 532.96754,-464.1553 C 532.96754,-463.0487 533.65917,-463.87865 532.41424,-462.77205 C 531.16931,-461.66545 531.16931,-462.35707 530.61601,-460.69717 C 530.06271,-459.03726 529.37108,-460.00554 530.06271,-458.62229 C 530.75434,-457.23904 530.47769,-457.10071 531.16931,-456.13243 C 531.86094,-455.16415 532.13759,-455.44081 532.13759,-454.3342 C 532.13759,-453.2276 532.13759,-454.19588 532.13759,-451.84435 C 532.13759,-449.49282 530.33936,-450.18444 532.27592,-449.49282 C 534.21247,-448.80119 533.65917,-448.80119 535.31907,-448.80119 C 536.97898,-448.80119 537.94726,-447.97124 538.63888,-449.07784 C 539.33051,-450.18444 538.91553,-451.29105 539.46883,-450.87607 C 540.02214,-450.46109 538.63888,-449.90779 540.57544,-449.63114 C 542.51199,-449.35449 542.37367,-448.80119 543.34194,-449.49282 C 544.31022,-450.18444 545.14017,-450.59942 544.7252,-451.5677 C 544.31022,-452.53597 544.03357,-453.08927 543.20362,-453.50425 C 542.37367,-453.91923 541.26706,-453.50425 541.54371,-454.74918 C 541.82037,-455.99411 541.12874,-456.40908 542.09702,-456.68573 C 543.06529,-456.96238 542.78864,-457.10071 543.61859,-457.37736 C 544.44855,-457.65401 545.47041,-458.22369 545.47041,-458.22369 L 545.42139,-514.47885 L 474.45592,-514.49561 z "
           id="path39581" />
        <path
           style="fill:#f4e2ba;fill-opacity:1;fill-rule:evenodd;stroke:#27aaea;stroke-width:0.99620622px;stroke-linecap:butt;stroke-linejoin:miter;stroke-opacity:1"
           d="M 523.14644,-446.17301 C 522.03984,-446.72631 521.62487,-446.31133 521.07156,-447.00296 C 520.51826,-447.69459 519.41166,-448.52454 518.85836,-449.63114 C 518.30506,-450.73774 518.16673,-452.6743 518.72003,-453.36593 C 519.27333,-454.05755 518.16673,-454.05755 520.10329,-454.74918 C 522.03984,-455.44081 520.93324,-455.85578 522.59314,-455.85578 C 524.25305,-455.85578 524.66802,-455.99411 525.6363,-455.85578 C 526.60458,-455.71746 526.60458,-455.71746 527.57286,-455.71746 C 528.54113,-455.71746 528.81778,-456.13243 528.95611,-455.57913 C 529.09443,-455.02583 529.50941,-454.61085 529.09443,-454.05755 C 528.67946,-453.50425 528.54113,-453.91923 527.71118,-453.2276 C 526.88123,-452.53597 526.05128,-452.81262 526.05128,-451.5677 C 526.05128,-450.32277 526.32793,-450.59942 526.32793,-449.49282 C 526.32793,-448.38621 526.32793,-448.24789 525.91295,-447.55626 C 525.49797,-446.86463 523.00812,-446.03468 523.14644,-446.17301 z "
           id="path39583" />
        <path
           style="fill:#f4e2ba;fill-opacity:1;fill-rule:evenodd;stroke:#27aaea;stroke-width:0.99620622px;stroke-linecap:butt;stroke-linejoin:miter;stroke-opacity:1"
           d="M 508.89893,-445.61971 C 513.46367,-445.75803 514.29362,-445.75803 514.84692,-445.75803 C 515.40022,-445.75803 515.8152,-444.92808 515.8152,-446.44966 C 515.8152,-447.97124 516.50683,-447.55626 515.8152,-448.93951 C 515.12357,-450.32277 515.40022,-450.32277 514.84692,-451.01439 C 514.29362,-451.70602 514.98525,-452.121 513.46367,-452.25932 C 511.94209,-452.39765 511.94209,-452.95095 511.11214,-452.25932 C 510.28219,-451.5677 509.59056,-451.29105 509.45224,-450.18444 C 509.31391,-449.07784 509.45224,-449.63114 509.45224,-448.52454 C 509.45224,-447.41794 509.45224,-446.03468 508.89893,-445.61971 z "
           id="path39585" />
      </g>
      <path
         id="path44020"
         d="M 530.94205,-495.71997 C 534.50831,-495.47402 535.00021,-495.35104 535.5536,-495.41253 C 536.10698,-495.47402 535.30765,-495.47402 536.78334,-496.08889 C 538.25903,-496.70376 538.62796,-496.58079 538.68944,-497.13417 C 538.75093,-497.68756 538.68944,-497.93351 539.11985,-498.4254 C 539.55026,-498.9173 539.67324,-499.22474 539.67324,-499.71664 C 539.67324,-500.20853 539.98067,-500.14705 539.67324,-501.3153 C 539.3658,-502.48356 539.48878,-502.72951 538.93539,-503.34438 C 538.38201,-503.95925 538.07457,-504.51264 537.76713,-504.57412 C 537.4597,-504.63561 537.33672,-504.88156 536.53739,-504.51264 C 535.73806,-504.14371 536.22995,-504.38966 535.12318,-504.02074 C 534.01641,-503.65182 534.13939,-504.38966 533.34006,-503.09843 C 532.54072,-501.8072 532.47923,-501.43828 531.98734,-501.13084 C 531.49544,-500.82341 531.55693,-501.43828 531.37246,-500.08556 C 531.188,-498.73284 530.75759,-498.11797 530.75759,-497.5031 C 530.75759,-496.88822 530.88057,-495.90443 530.94205,-495.71997 z "
         style="fill:#daf0fd;fill-opacity:1;fill-rule:evenodd;stroke:#27aaea;stroke-width:0.99620622px;stroke-linecap:butt;stroke-linejoin:miter;stroke-opacity:1" />
      <path
         sodipodi:nodetypes="cssssssss"
         id="path44022"
         d="M 543.2395,-486.80432 C 544.34627,-487.35771 544.6537,-487.41919 544.71519,-487.8496 C 544.77668,-488.28001 545.20709,-488.40299 545.33006,-488.95637 C 545.45304,-489.50976 545.68775,-489.91265 544.82692,-489.97414 C 543.9661,-490.03563 543.97734,-489.94017 543.48545,-489.94017 C 542.99355,-489.94017 542.87057,-490.18612 542.44016,-489.81719 C 542.00975,-489.44827 541.70232,-488.71042 541.64083,-488.3415 C 541.57934,-487.97258 541.39488,-487.60365 541.64083,-487.35771 C 542.738,-486.24406 541.87325,-486.32212 543.2395,-486.80432 z "
         style="fill:#daf0fd;fill-opacity:1;fill-rule:evenodd;stroke:#27aaea;stroke-width:0.99620622px;stroke-linecap:butt;stroke-linejoin:miter;stroke-opacity:1" />
    </g>
    <g
       id="g56503"
       transform="matrix(1.002791,0,0,1.007478,-0.847818,1.625893)">
      <g
         id="g56488">
        <path
           style="fill:none;fill-opacity:1;fill-rule:evenodd;stroke:red;stroke-width:0.99489379px;stroke-linecap:butt;stroke-linejoin:miter;stroke-opacity:1"
           d="M 424.06525,-392.65461 C 424.06525,-392.65461 424.06525,-381.0934 423.14035,-378.78115 C 422.21545,-376.46891 417.12852,-379.2436 417.12852,-379.2436 C 417.12852,-379.2436 408.80445,-381.0934 395.39344,-381.0934 C 381.98244,-381.0934 373.65837,-394.96685 372.73347,-405.14072 C 359.97975,-395.65331 375.22813,-392.61887 266.37032,-360.74566 C 191.45367,-337.16079 178.04266,-328.37427 178.04266,-328.37427 C 178.04266,-328.37427 82.315828,-292.76574 52.256678,-292.76574"
           id="path50238"
           sodipodi:nodetypes="cscssccc" />
        <path
           style="fill:none;fill-rule:evenodd;stroke:red;stroke-width:0.99489379;stroke-linecap:butt;stroke-linejoin:miter;stroke-miterlimit:4;stroke-dasharray:2.98468137, 2.98468137;stroke-dashoffset:0;stroke-opacity:1"
           d="M 51.233807,-292.70793 C 12.755957,-283.46905 -74.331015,-280.10945 -131.23414,-282.62915"
           id="path52916"
           sodipodi:nodetypes="cc" />
      </g>
      <g
         id="g56492">
        <path
           style="fill:red;fill-opacity:1;fill-rule:evenodd;stroke:none;stroke-width:1px;stroke-linecap:butt;stroke-linejoin:miter;stroke-opacity:1"
           d="M 171.17079,-325.52288 L 182.20292,-324.30847 L 177.3404,-335.07906 L 171.17079,-325.52288 z "
           id="path51125"
           inkscape:transform-center-x="-5.516065"
           inkscape:transform-center-y="-4.170885" />
        <path
           style="fill:red;fill-opacity:1;fill-rule:evenodd;stroke:none;stroke-width:1px;stroke-linecap:butt;stroke-linejoin:miter;stroke-opacity:1;display:inline"
           d="M 259.48773,-358.5669 L 270.41002,-356.5955 L 266.30091,-367.67543 L 259.48773,-358.5669 z "
           id="path52012"
           inkscape:transform-center-x="-5.458035"
           inkscape:transform-center-y="-3.523575" />
        <path
           style="fill:red;fill-opacity:1;fill-rule:evenodd;stroke:none;stroke-width:1px;stroke-linecap:butt;stroke-linejoin:miter;stroke-opacity:1;display:inline"
           d="M 370.70363,-408.05697 L 368.122,-397.26262 L 379.41519,-400.74304 L 370.70363,-408.05697 z "
           id="path52016"
           inkscape:transform-center-x="-3.020215"
           inkscape:transform-center-y="5.391545" />
        <path
           style="fill:red;fill-opacity:1;fill-rule:evenodd;stroke:none;stroke-width:1px;stroke-linecap:butt;stroke-linejoin:miter;stroke-opacity:1;display:inline"
           d="M 384.33013,-383.41636 L 392.32535,-375.71837 L 395.05112,-387.21704 L 384.33013,-383.41636 z "
           id="path52018"
           inkscape:transform-center-x="-5.332955"
           inkscape:transform-center-y="1.984375" />
        <path
           style="fill:red;fill-opacity:1;fill-rule:evenodd;stroke:none;stroke-width:1px;stroke-linecap:butt;stroke-linejoin:miter;stroke-opacity:1;display:inline"
           d="M 419.20827,-375.32797 L 428.95375,-380.6391 L 418.80644,-386.69561 L 419.20827,-375.32797 z "
           id="path52020"
           inkscape:transform-center-x="-4.697615"
           inkscape:transform-center-y="-5.64682" />
        <g
           id="g52912">
          <path
             sodipodi:nodetypes="cc"
             id="path52023"
             d="M 46.404391,-297.74732 L 55.643274,-287.66853"
             style="fill:none;fill-opacity:1;fill-rule:evenodd;stroke:red;stroke-width:0.99489379px;stroke-linecap:butt;stroke-linejoin:miter;stroke-opacity:1" />
          <path
             sodipodi:nodetypes="cc"
             id="path52025"
             d="M 55.643275,-296.90742 L 47.664239,-287.87851"
             style="fill:none;fill-opacity:1;fill-rule:evenodd;stroke:red;stroke-width:0.99489379px;stroke-linecap:butt;stroke-linejoin:miter;stroke-opacity:1" />
        </g>
        <path
           style="fill:red;fill-opacity:1;fill-rule:evenodd;stroke:none;stroke-width:1px;stroke-linecap:butt;stroke-linejoin:miter;stroke-opacity:1;display:inline"
           d="M -134.7129,-282.05393 L -125.19525,-276.34456 L -125.11701,-288.16162 L -134.7129,-282.05393 z "
           id="path53803"
           inkscape:transform-center-x="-4.779115"
           inkscape:transform-center-y="-0.15817" />
      </g>
    </g>
    <path
       sodipodi:type="arc"
       style="opacity:1;fill:white;fill-opacity:1;fill-rule:nonzero;stroke:black;stroke-width:0.929205;stroke-linecap:butt;stroke-linejoin:miter;stroke-miterlimit:4;stroke-dasharray:none;stroke-dashoffset:0;stroke-opacity:1"
       id="path53805"
       sodipodi:cx="-132.31839"
       sodipodi:cy="-284.87506"
       sodipodi:rx="2.4572747"
       sodipodi:ry="2.2700539"
       d="M -129.86112 -284.87506 A 2.4572747 2.2700539 0 1 1  -134.77566,-284.87506 A 2.4572747 2.2700539 0 1 1  -129.86112 -284.87506 z"
       transform="matrix(0.931163,0,0,1.007478,-11.04129,1.484427)" />
    <path
       sodipodi:type="arc"
       style="opacity:1;fill:white;fill-opacity:1;fill-rule:nonzero;stroke:black;stroke-width:0.929205;stroke-linecap:butt;stroke-linejoin:miter;stroke-miterlimit:4;stroke-dasharray:none;stroke-dashoffset:0;stroke-opacity:1;display:inline"
       id="path54692"
       sodipodi:cx="-132.31839"
       sodipodi:cy="-284.87506"
       sodipodi:rx="2.4572747"
       sodipodi:ry="2.2700539"
       d="M -129.86112 -284.87506 A 2.4572747 2.2700539 0 1 1  -134.77566,-284.87506 A 2.4572747 2.2700539 0 1 1  -129.86112 -284.87506 z"
       transform="matrix(0.931163,0,0,1.007478,545.7273,-88.72896)" />
    <path
       sodipodi:type="arc"
       style="opacity:1;fill:white;fill-opacity:1;fill-rule:nonzero;stroke:black;stroke-width:0.929205;stroke-linecap:butt;stroke-linejoin:miter;stroke-miterlimit:4;stroke-dasharray:none;stroke-dashoffset:0;stroke-opacity:1;display:inline"
       id="path54694"
       sodipodi:cx="-132.31839"
       sodipodi:cy="-284.87506"
       sodipodi:rx="2.4572747"
       sodipodi:ry="2.2700539"
       d="M -129.86112 -284.87506 A 2.4572747 2.2700539 0 1 1  -134.77566,-284.87506 A 2.4572747 2.2700539 0 1 1  -129.86112 -284.87506 z"
       transform="matrix(0.931163,0,0,1.007478,547.1127,-106.986)" />
    <path
       sodipodi:type="arc"
       style="opacity:1;fill:white;fill-opacity:1;fill-rule:nonzero;stroke:black;stroke-width:0.929205;stroke-linecap:butt;stroke-linejoin:miter;stroke-miterlimit:4;stroke-dasharray:none;stroke-dashoffset:0;stroke-opacity:1;display:inline"
       id="path54696"
       sodipodi:cx="-132.31839"
       sodipodi:cy="-284.87506"
       sodipodi:rx="2.4572747"
       sodipodi:ry="2.2700539"
       d="M -129.86112 -284.87506 A 2.4572747 2.2700539 0 1 1  -134.77566,-284.87506 A 2.4572747 2.2700539 0 1 1  -129.86112 -284.87506 z"
       transform="matrix(0.931163,0,0,1.007478,495.0728,-120.4667)" />
    <text
       xml:space="preserve"
       style="font-size:18px;font-style:normal;font-weight:normal;fill:black;fill-opacity:1;stroke:none;stroke-width:1px;stroke-linecap:butt;stroke-linejoin:miter;stroke-opacity:1;font-family:Arial"
       x="-134.82239"
       y="-292.58813"
       id="text63602"><tspan
         sodipodi:role="line"
         id="tspan63604"
         x="-134.82239"
         y="-292.58813">New York</tspan></text>
    <text
       xml:space="preserve"
       style="font-size:18px;font-style:normal;font-weight:normal;fill:black;fill-opacity:1;stroke:none;stroke-width:1px;stroke-linecap:butt;stroke-linejoin:miter;stroke-opacity:1;font-family:Arial"
       x="278.11862"
       y="-412.22998"
       id="text63606"><tspan
         sodipodi:role="line"
         id="tspan63608"
         x="278.11862"
         y="-412.22998">Queenstown</tspan></text>
    <text
       xml:space="preserve"
       style="font-size:18px;font-style:normal;font-weight:normal;fill:black;fill-opacity:1;stroke:none;stroke-width:1px;stroke-linecap:butt;stroke-linejoin:miter;stroke-opacity:1;font-family:Arial"
       x="424.54602"
       y="-360.4704"
       id="text63610"><tspan
         sodipodi:role="line"
         id="tspan63612"
         x="424.54602"
         y="-360.4704">Cherbourg</tspan></text>
    <text
       xml:space="preserve"
       style="font-size:18px;font-style:normal;font-weight:normal;fill:black;fill-opacity:1;stroke:none;stroke-width:1px;stroke-linecap:butt;stroke-linejoin:miter;stroke-opacity:1;font-family:Arial"
       x="424.73376"
       y="-396.20432"
       id="text63614"><tspan
         sodipodi:role="line"
         id="tspan63616"
         x="424.73376"
         y="-396.20432">Southampton</tspan></text>
    <text
       xml:space="preserve"
       style="font-size:18px;font-style:normal;font-weight:normal;fill:black;fill-opacity:1;stroke:none;stroke-width:1px;stroke-linecap:butt;stroke-linejoin:miter;stroke-opacity:1;font-family:Arial"
       x="305.66022"
       y="245.67731"
       id="text1932"
       transform="translate(-254.8397,-515.8537)"><tspan
         sodipodi:role="line"
         id="tspan1934"
         x="305.66022"
         y="245.67731">Titanic</tspan></text>
  </g>
  <g
     inkscape:groupmode="layer"
     id="layer7"
     inkscape:label="Borders"
     style="display:inline"
     transform="translate(254.8397,515.8537)" />
  <g
     inkscape:groupmode="layer"
     id="layer5"
     inkscape:label="Key"
     style="display:inline"
     transform="translate(254.8397,515.8537)" />
</svg>
